<svg xmlns="http://www.w3.org/2000/svg" width="1024" height="1024" viewBox="0 0 1024 1024" version="1.1"><path d="M 297.609 282.046 C 293.819 282.495, 287.294 283.623, 283.109 284.554 C 278.924 285.485, 272.125 287.374, 268 288.752 C 263.875 290.130, 256.998 293.012, 252.717 295.157 C 248.436 297.301, 241.686 301.133, 237.717 303.672 C 233.748 306.211, 228.025 310.191, 225 312.515 C 221.975 314.840, 216.350 319.838, 212.500 323.623 C 208.650 327.408, 204.818 331.403, 203.985 332.502 C 203.151 333.601, 199.935 337.650, 196.838 341.500 C 193.740 345.350, 189.135 351.597, 186.603 355.382 C 184.071 359.168, 182 362.635, 182 363.088 C 182 363.541, 180.735 366.069, 179.188 368.706 C 177.642 371.343, 175.770 375.750, 175.029 378.500 C 174.288 381.250, 172.899 385.300, 171.941 387.500 C 170.983 389.700, 169.690 393.073, 169.066 394.995 C 168.443 396.918, 167.664 401.676, 167.335 405.569 C 166.761 412.351, 166.847 412.734, 169.368 414.718 C 170.816 415.856, 172 417.261, 172 417.839 C 172 418.416, 173.531 422.249, 175.402 426.355 C 177.274 430.461, 180.602 436.224, 182.799 439.160 C 184.996 442.097, 188.977 446.595, 191.647 449.155 C 194.316 451.715, 199.359 455.637, 202.854 457.872 C 206.349 460.106, 211.653 462.849, 214.642 463.967 C 217.630 465.085, 221.408 466, 223.038 466 L 226 466 226.001 450.750 C 226.002 441.722, 226.609 432.056, 227.488 427.059 C 228.305 422.417, 230.133 415.036, 231.551 410.657 C 232.968 406.278, 235.631 399.712, 237.467 396.065 C 239.304 392.418, 243.499 385.849, 246.789 381.467 C 250.080 377.085, 254.083 372.150, 255.686 370.500 C 257.289 368.850, 259.929 366.359, 261.552 364.963 C 263.175 363.568, 266.078 361.318, 268.002 359.963 C 269.926 358.609, 271.725 357.220, 272 356.877 C 272.275 356.535, 275.833 354.581, 279.908 352.535 C 283.982 350.490, 290.057 347.923, 293.408 346.832 C 296.758 345.740, 303.550 344.215, 308.500 343.442 C 316.007 342.269, 350.629 342.033, 517.178 342.018 C 654.080 342.006, 719.314 342.338, 724.678 343.074 C 728.980 343.665, 735.801 345.220, 739.836 346.530 C 743.871 347.839, 750.171 350.559, 753.836 352.573 C 757.501 354.587, 762.750 358.086, 765.500 360.349 C 768.250 362.612, 772.218 366.046, 774.319 367.982 C 776.419 369.917, 780.548 374.650, 783.494 378.500 C 786.439 382.350, 790.681 388.911, 792.920 393.081 C 795.160 397.251, 797.881 403.248, 798.968 406.408 C 800.056 409.568, 801.606 414.932, 802.414 418.327 C 803.222 421.722, 804.359 426.885, 804.942 429.799 C 805.595 433.069, 806 452.839, 806 481.427 C 806 517.279, 806.283 527.986, 807.250 528.776 C 807.938 529.337, 810.783 530.469, 813.573 531.292 C 816.364 532.114, 821.089 534.021, 824.073 535.528 C 827.058 537.036, 831.300 539.519, 833.500 541.046 C 835.700 542.573, 840.009 546.225, 843.075 549.161 C 846.141 552.098, 851.222 558.009, 854.367 562.298 C 857.512 566.586, 860.742 570.347, 861.545 570.655 C 862.348 570.964, 864.128 570.934, 865.502 570.589 L 868 569.962 868 497.553 C 868 451.862, 867.607 422.258, 866.934 417.322 C 866.348 413.020, 864.973 405.900, 863.879 401.500 C 862.785 397.100, 860.970 390.800, 859.847 387.500 C 858.724 384.200, 857.072 379.700, 856.177 377.500 C 855.281 375.300, 852.649 369.798, 850.328 365.274 C 848.006 360.750, 844.201 354.225, 841.872 350.774 C 839.542 347.323, 836.255 342.700, 834.568 340.500 C 832.881 338.300, 828.350 333.189, 824.500 329.141 C 820.650 325.094, 814.350 319.195, 810.500 316.033 C 806.650 312.871, 799.900 307.930, 795.500 305.054 C 791.100 302.178, 783 297.664, 777.500 295.023 C 772 292.381, 765.250 289.455, 762.500 288.519 C 759.750 287.583, 752.775 285.637, 747 284.195 L 736.500 281.574 520.500 281.402 C 401.700 281.308, 301.399 281.598, 297.609 282.046 M 435.500 401.202 C 433.850 401.776, 431.046 403.620, 429.269 405.301 C 427.492 406.981, 425.517 409.935, 424.880 411.864 C 424.014 414.488, 423.890 444.366, 424.387 530.352 C 425.022 640.110, 425.138 645.525, 426.942 649.602 C 428.306 652.686, 429.956 654.447, 432.876 655.937 C 435.100 657.072, 438.306 658, 440 658 C 441.694 658, 444.889 657.077, 447.101 655.949 C 449.312 654.820, 453.682 652.240, 456.811 650.214 C 459.940 648.189, 463.400 646.030, 464.500 645.416 C 465.600 644.803, 470.325 641.923, 475 639.017 C 479.675 636.111, 484.932 632.918, 486.683 631.921 C 488.433 630.925, 492.258 628.579, 495.183 626.708 C 498.107 624.837, 503.425 621.496, 507 619.283 C 510.575 617.070, 523.850 608.847, 536.500 601.010 C 549.150 593.172, 561.856 585.239, 564.735 583.380 C 567.614 581.521, 570.207 580, 570.497 580 C 570.787 580, 574.056 578.036, 577.762 575.635 C 581.468 573.234, 588.775 568.669, 594 565.490 C 599.225 562.311, 605.075 558.703, 607 557.474 C 608.925 556.244, 614.100 553.105, 618.500 550.499 C 622.900 547.893, 627.552 544.803, 628.837 543.631 C 630.123 542.459, 631.810 539.983, 632.587 538.128 C 633.364 536.273, 634 533.446, 634 531.846 C 634 530.245, 633.367 527.421, 632.594 525.570 C 631.820 523.719, 629.233 520.776, 626.844 519.029 C 624.455 517.283, 614.175 510.486, 604 503.925 C 593.825 497.364, 582.125 489.801, 578 487.119 C 573.875 484.436, 563.975 477.996, 556 472.807 C 548.025 467.618, 526.274 453.501, 507.664 441.436 C 489.055 429.371, 467.886 415.639, 460.621 410.920 C 453.357 406.201, 445.904 401.813, 444.058 401.170 C 442.212 400.526, 440.206 400.036, 439.601 400.079 C 438.995 400.122, 437.150 400.628, 435.500 401.202 M 164.423 478.340 C 164.140 479.077, 164.076 514.965, 164.280 558.090 C 164.642 634.535, 164.707 636.751, 166.858 646.500 C 168.071 652, 170.671 661.225, 172.635 667 C 174.599 672.775, 178.336 681.793, 180.939 687.039 C 183.542 692.285, 188.882 701.362, 192.805 707.209 C 196.859 713.252, 203.944 721.891, 209.219 727.223 C 214.324 732.384, 219.939 737.802, 221.698 739.264 C 223.457 740.727, 228.857 744.584, 233.698 747.837 C 238.539 751.089, 246.257 755.634, 250.849 757.936 C 255.440 760.238, 263.778 763.654, 269.377 765.528 C 274.976 767.401, 282.694 769.591, 286.529 770.394 C 290.363 771.196, 298.675 772.334, 305 772.923 C 312.726 773.642, 382.302 773.989, 517 773.981 C 638.476 773.973, 722.140 773.584, 729.273 772.993 C 735.748 772.456, 743.173 771.519, 745.773 770.910 C 748.373 770.302, 754.775 768.458, 760 766.814 C 765.225 765.169, 773.325 761.979, 778 759.725 C 782.675 757.470, 789.425 753.817, 793 751.608 C 796.575 749.398, 799.725 747.323, 800 746.997 C 800.275 746.671, 802.075 745.308, 804 743.970 C 805.925 742.631, 808.834 740.403, 810.463 739.018 C 812.093 737.633, 815.863 734.250, 818.841 731.500 C 821.818 728.750, 826.820 723.350, 829.956 719.500 C 833.091 715.650, 837.919 709.125, 840.683 705 C 843.448 700.875, 847.488 694.125, 849.662 690 C 851.836 685.875, 854.880 679.350, 856.427 675.500 C 857.973 671.650, 859.673 667.150, 860.202 665.500 C 860.732 663.850, 861.607 660.925, 862.147 659 C 862.687 657.075, 863.758 652.800, 864.529 649.500 C 865.299 646.200, 865.946 641.672, 865.965 639.438 C 865.994 636.074, 865.491 635, 863.034 633.183 C 861.403 631.977, 858.169 628.180, 855.848 624.745 C 853.527 621.310, 848.880 615.740, 845.522 612.366 C 842.164 608.992, 835.929 603.955, 831.666 601.172 C 827.403 598.389, 821.442 595.187, 818.420 594.056 C 815.398 592.925, 811.367 592, 809.462 592 L 806 592 806 603.337 C 806 609.573, 805.334 618.910, 804.520 624.087 C 803.706 629.264, 802.634 635.075, 802.139 637 C 801.643 638.925, 800.455 642.745, 799.498 645.488 C 798.542 648.231, 796.423 653.406, 794.790 656.988 C 793.157 660.570, 789.408 667.136, 786.460 671.580 C 783.512 676.024, 778.040 682.793, 774.300 686.623 C 770.560 690.453, 764.800 695.418, 761.500 697.656 C 758.200 699.895, 752.800 703.085, 749.500 704.745 C 746.200 706.405, 741.250 708.528, 738.500 709.464 C 735.750 710.399, 729.900 711.802, 725.500 712.581 C 718.775 713.772, 685.464 713.997, 516.500 713.997 C 347.111 713.997, 314.228 713.773, 307.413 712.574 C 302.966 711.791, 295.741 709.768, 291.359 708.078 C 286.977 706.388, 280.716 703.396, 277.446 701.428 C 274.176 699.461, 269.161 696.048, 266.303 693.844 C 263.444 691.641, 259.394 687.938, 257.303 685.615 C 255.211 683.293, 252.375 680.057, 251 678.426 C 249.625 676.794, 246.669 672.769, 244.432 669.480 C 242.194 666.191, 239.186 661.025, 237.748 658 C 236.310 654.975, 234.250 650.238, 233.170 647.474 C 232.089 644.709, 230.487 639.534, 229.609 635.974 C 228.730 632.413, 227.568 626.350, 227.026 622.500 C 226.483 618.650, 226.024 596.375, 226.004 573 C 225.985 549.625, 225.639 530.025, 225.235 529.444 C 224.831 528.864, 221.028 527.136, 216.784 525.605 C 212.540 524.074, 206.240 521.118, 202.784 519.035 C 199.328 516.952, 193.992 513.055, 190.927 510.374 C 187.863 507.693, 183.259 502.887, 180.698 499.694 C 178.137 496.501, 174.210 490.088, 171.973 485.444 C 169.578 480.473, 167.295 477, 166.421 477 C 165.605 477, 164.706 477.603, 164.423 478.340" stroke="none" fill="#f1f3f9" fill-rule="evenodd"/><path d="M 0 512.001 L 0 1024.002 512.250 1023.751 L 1024.500 1023.500 1024.751 511.750 L 1025.002 0 512.501 0 L 0 0 0 512.001 M 0.496 512.500 C 0.496 794.100, 0.610 909.151, 0.750 768.168 C 0.890 627.186, 0.890 396.786, 0.750 256.168 C 0.610 115.551, 0.496 230.900, 0.496 512.500 M 297.609 282.046 C 293.819 282.495, 287.294 283.623, 283.109 284.554 C 278.924 285.485, 272.125 287.374, 268 288.752 C 263.875 290.130, 256.998 293.012, 252.717 295.157 C 248.436 297.301, 241.686 301.133, 237.717 303.672 C 233.748 306.211, 228.025 310.191, 225 312.515 C 221.975 314.840, 216.350 319.838, 212.500 323.623 C 208.650 327.408, 204.818 331.403, 203.985 332.502 C 203.151 333.601, 199.935 337.650, 196.838 341.500 C 193.740 345.350, 189.135 351.597, 186.603 355.382 C 184.071 359.168, 182 362.635, 182 363.088 C 182 363.541, 180.735 366.069, 179.188 368.706 C 177.642 371.343, 175.770 375.750, 175.029 378.500 C 174.288 381.250, 172.899 385.300, 171.941 387.500 C 170.983 389.700, 169.690 393.073, 169.066 394.995 C 168.443 396.918, 167.664 401.676, 167.335 405.569 C 166.761 412.351, 166.847 412.734, 169.368 414.718 C 170.816 415.856, 172 417.261, 172 417.839 C 172 418.416, 173.531 422.249, 175.402 426.355 C 177.274 430.461, 180.602 436.224, 182.799 439.160 C 184.996 442.097, 188.977 446.595, 191.647 449.155 C 194.316 451.715, 199.359 455.637, 202.854 457.872 C 206.349 460.106, 211.653 462.849, 214.642 463.967 C 217.630 465.085, 221.408 466, 223.038 466 L 226 466 226.001 450.750 C 226.002 441.722, 226.609 432.056, 227.488 427.059 C 228.305 422.417, 230.133 415.036, 231.551 410.657 C 232.968 406.278, 235.631 399.712, 237.467 396.065 C 239.304 392.418, 243.499 385.849, 246.789 381.467 C 250.080 377.085, 254.083 372.150, 255.686 370.500 C 257.289 368.850, 259.929 366.359, 261.552 364.963 C 263.175 363.568, 266.078 361.318, 268.002 359.963 C 269.926 358.609, 271.725 357.220, 272 356.877 C 272.275 356.535, 275.833 354.581, 279.908 352.535 C 283.982 350.490, 290.057 347.923, 293.408 346.832 C 296.758 345.740, 303.550 344.215, 308.500 343.442 C 316.007 342.269, 350.629 342.033, 517.178 342.018 C 654.080 342.006, 719.314 342.338, 724.678 343.074 C 728.980 343.665, 735.801 345.220, 739.836 346.530 C 743.871 347.839, 750.171 350.559, 753.836 352.573 C 757.501 354.587, 762.750 358.086, 765.500 360.349 C 768.250 362.612, 772.218 366.046, 774.319 367.982 C 776.419 369.917, 780.548 374.650, 783.494 378.500 C 786.439 382.350, 790.681 388.911, 792.920 393.081 C 795.160 397.251, 797.881 403.248, 798.968 406.408 C 800.056 409.568, 801.606 414.932, 802.414 418.327 C 803.222 421.722, 804.359 426.885, 804.942 429.799 C 805.595 433.069, 806 452.839, 806 481.427 C 806 517.279, 806.283 527.986, 807.250 528.776 C 807.938 529.337, 810.783 530.469, 813.573 531.292 C 816.364 532.114, 821.089 534.021, 824.073 535.528 C 827.058 537.036, 831.300 539.519, 833.500 541.046 C 835.700 542.573, 840.009 546.225, 843.075 549.161 C 846.141 552.098, 851.222 558.009, 854.367 562.298 C 857.512 566.586, 860.742 570.347, 861.545 570.655 C 862.348 570.964, 864.128 570.934, 865.502 570.589 L 868 569.962 868 497.553 C 868 451.862, 867.607 422.258, 866.934 417.322 C 866.348 413.020, 864.973 405.900, 863.879 401.500 C 862.785 397.100, 860.970 390.800, 859.847 387.500 C 858.724 384.200, 857.072 379.700, 856.177 377.500 C 855.281 375.300, 852.649 369.798, 850.328 365.274 C 848.006 360.750, 844.201 354.225, 841.872 350.774 C 839.542 347.323, 836.255 342.700, 834.568 340.500 C 832.881 338.300, 828.350 333.189, 824.500 329.141 C 820.650 325.094, 814.350 319.195, 810.500 316.033 C 806.650 312.871, 799.900 307.930, 795.500 305.054 C 791.100 302.178, 783 297.664, 777.500 295.023 C 772 292.381, 765.250 289.455, 762.500 288.519 C 759.750 287.583, 752.775 285.637, 747 284.195 L 736.500 281.574 520.500 281.402 C 401.700 281.308, 301.399 281.598, 297.609 282.046 M 435.500 401.202 C 433.850 401.776, 431.046 403.620, 429.269 405.301 C 427.492 406.981, 425.517 409.935, 424.880 411.864 C 424.014 414.488, 423.890 444.366, 424.387 530.352 C 425.022 640.110, 425.138 645.525, 426.942 649.602 C 428.306 652.686, 429.956 654.447, 432.876 655.937 C 435.100 657.072, 438.306 658, 440 658 C 441.694 658, 444.889 657.077, 447.101 655.949 C 449.312 654.820, 453.682 652.240, 456.811 650.214 C 459.940 648.189, 463.400 646.030, 464.500 645.416 C 465.600 644.803, 470.325 641.923, 475 639.017 C 479.675 636.111, 484.932 632.918, 486.683 631.921 C 488.433 630.925, 492.258 628.579, 495.183 626.708 C 498.107 624.837, 503.425 621.496, 507 619.283 C 510.575 617.070, 523.850 608.847, 536.500 601.010 C 549.150 593.172, 561.856 585.239, 564.735 583.380 C 567.614 581.521, 570.207 580, 570.497 580 C 570.787 580, 574.056 578.036, 577.762 575.635 C 581.468 573.234, 588.775 568.669, 594 565.490 C 599.225 562.311, 605.075 558.703, 607 557.474 C 608.925 556.244, 614.100 553.105, 618.500 550.499 C 622.900 547.893, 627.552 544.803, 628.837 543.631 C 630.123 542.459, 631.810 539.983, 632.587 538.128 C 633.364 536.273, 634 533.446, 634 531.846 C 634 530.245, 633.367 527.421, 632.594 525.570 C 631.820 523.719, 629.233 520.776, 626.844 519.029 C 624.455 517.283, 614.175 510.486, 604 503.925 C 593.825 497.364, 582.125 489.801, 578 487.119 C 573.875 484.436, 563.975 477.996, 556 472.807 C 548.025 467.618, 526.274 453.501, 507.664 441.436 C 489.055 429.371, 467.886 415.639, 460.621 410.920 C 453.357 406.201, 445.904 401.813, 444.058 401.170 C 442.212 400.526, 440.206 400.036, 439.601 400.079 C 438.995 400.122, 437.150 400.628, 435.500 401.202 M 164.423 478.340 C 164.140 479.077, 164.076 514.965, 164.280 558.090 C 164.642 634.535, 164.707 636.751, 166.858 646.500 C 168.071 652, 170.671 661.225, 172.635 667 C 174.599 672.775, 178.336 681.793, 180.939 687.039 C 183.542 692.285, 188.882 701.362, 192.805 707.209 C 196.859 713.252, 203.944 721.891, 209.219 727.223 C 214.324 732.384, 219.939 737.802, 221.698 739.264 C 223.457 740.727, 228.857 744.584, 233.698 747.837 C 238.539 751.089, 246.257 755.634, 250.849 757.936 C 255.440 760.238, 263.778 763.654, 269.377 765.528 C 274.976 767.401, 282.694 769.591, 286.529 770.394 C 290.363 771.196, 298.675 772.334, 305 772.923 C 312.726 773.642, 382.302 773.989, 517 773.981 C 638.476 773.973, 722.140 773.584, 729.273 772.993 C 735.748 772.456, 743.173 771.519, 745.773 770.910 C 748.373 770.302, 754.775 768.458, 760 766.814 C 765.225 765.169, 773.325 761.979, 778 759.725 C 782.675 757.470, 789.425 753.817, 793 751.608 C 796.575 749.398, 799.725 747.323, 800 746.997 C 800.275 746.671, 802.075 745.308, 804 743.970 C 805.925 742.631, 808.834 740.403, 810.463 739.018 C 812.093 737.633, 815.863 734.250, 818.841 731.500 C 821.818 728.750, 826.820 723.350, 829.956 719.500 C 833.091 715.650, 837.919 709.125, 840.683 705 C 843.448 700.875, 847.488 694.125, 849.662 690 C 851.836 685.875, 854.880 679.350, 856.427 675.500 C 857.973 671.650, 859.673 667.150, 860.202 665.500 C 860.732 663.850, 861.607 660.925, 862.147 659 C 862.687 657.075, 863.758 652.800, 864.529 649.500 C 865.299 646.200, 865.946 641.672, 865.965 639.438 C 865.994 636.074, 865.491 635, 863.034 633.183 C 861.403 631.977, 858.169 628.180, 855.848 624.745 C 853.527 621.310, 848.880 615.740, 845.522 612.366 C 842.164 608.992, 835.929 603.955, 831.666 601.172 C 827.403 598.389, 821.442 595.187, 818.420 594.056 C 815.398 592.925, 811.367 592, 809.462 592 L 806 592 806 603.337 C 806 609.573, 805.334 618.910, 804.520 624.087 C 803.706 629.264, 802.634 635.075, 802.139 637 C 801.643 638.925, 800.455 642.745, 799.498 645.488 C 798.542 648.231, 796.423 653.406, 794.790 656.988 C 793.157 660.570, 789.408 667.136, 786.460 671.580 C 783.512 676.024, 778.040 682.793, 774.300 686.623 C 770.560 690.453, 764.800 695.418, 761.500 697.656 C 758.200 699.895, 752.800 703.085, 749.500 704.745 C 746.200 706.405, 741.250 708.528, 738.500 709.464 C 735.750 710.399, 729.900 711.802, 725.500 712.581 C 718.775 713.772, 685.464 713.997, 516.500 713.997 C 347.111 713.997, 314.228 713.773, 307.413 712.574 C 302.966 711.791, 295.741 709.768, 291.359 708.078 C 286.977 706.388, 280.716 703.396, 277.446 701.428 C 274.176 699.461, 269.161 696.048, 266.303 693.844 C 263.444 691.641, 259.394 687.938, 257.303 685.615 C 255.211 683.293, 252.375 680.057, 251 678.426 C 249.625 676.794, 246.669 672.769, 244.432 669.480 C 242.194 666.191, 239.186 661.025, 237.748 658 C 236.310 654.975, 234.250 650.238, 233.170 647.474 C 232.089 644.709, 230.487 639.534, 229.609 635.974 C 228.730 632.413, 227.568 626.350, 227.026 622.500 C 226.483 618.650, 226.024 596.375, 226.004 573 C 225.985 549.625, 225.639 530.025, 225.235 529.444 C 224.831 528.864, 221.028 527.136, 216.784 525.605 C 212.540 524.074, 206.240 521.118, 202.784 519.035 C 199.328 516.952, 193.992 513.055, 190.927 510.374 C 187.863 507.693, 183.259 502.887, 180.698 499.694 C 178.137 496.501, 174.210 490.088, 171.973 485.444 C 169.578 480.473, 167.295 477, 166.421 477 C 165.605 477, 164.706 477.603, 164.423 478.340" stroke="none" fill="#fb0a30" fill-rule="evenodd"/></svg>