<svg xmlns="http://www.w3.org/2000/svg" width="1024" height="1024" viewBox="0 0 1024 1024" version="1.1"><path d="M 297.609 282.046 C 271.528 285.134, 247.525 295.206, 225 312.515 C 219.423 316.800, 206.757 328.847, 203.985 332.502 C 203.151 333.601, 199.935 337.650, 196.838 341.500 C 190.675 349.161, 182 361.782, 182 363.088 C 182 363.541, 180.735 366.069, 179.188 368.706 C 177.642 371.343, 175.770 375.750, 175.029 378.500 C 174.288 381.250, 172.899 385.300, 171.941 387.500 C 168.939 394.398, 167.952 398.269, 167.335 405.569 C 166.761 412.351, 166.847 412.734, 169.368 414.718 C 170.816 415.856, 172 417.261, 172 417.839 C 172 420.211, 179.078 434.187, 182.799 439.160 C 193.297 453.195, 212.495 466, 223.038 466 L 226 466 226.001 450.750 C 226.004 421.410, 232.132 400.986, 246.789 381.467 C 254.804 370.794, 259.768 365.761, 268.002 359.963 C 269.926 358.609, 271.725 357.220, 272 356.877 C 273.070 355.546, 287.627 348.714, 293.408 346.832 C 308.417 341.943, 304.066 342.037, 517.178 342.018 C 654.080 342.006, 719.314 342.338, 724.678 343.074 C 761.834 348.177, 792.871 378.223, 802.414 418.327 C 805.822 432.650, 806 435.776, 806 481.427 C 806 517.279, 806.283 527.986, 807.250 528.776 C 807.938 529.337, 810.783 530.469, 813.573 531.292 C 828.729 535.760, 842.688 546.369, 854.367 562.298 C 860.526 570.698, 861.672 571.550, 865.502 570.589 L 868 569.962 868 497.553 C 868 451.862, 867.607 422.258, 866.934 417.322 C 859.692 364.169, 826.247 318.433, 777.500 295.023 C 765.693 289.353, 761.041 287.701, 747 284.195 L 736.500 281.574 520.500 281.402 C 401.700 281.308, 301.399 281.598, 297.609 282.046 M 435.500 401.202 C 431.280 402.670, 426.246 407.723, 424.880 411.864 C 424.014 414.488, 423.890 444.366, 424.387 530.352 C 425.022 640.110, 425.138 645.525, 426.942 649.602 C 428.306 652.686, 429.956 654.447, 432.876 655.937 C 439.919 659.530, 443.886 658.581, 456.811 650.214 C 459.940 648.189, 463.400 646.030, 464.500 645.416 C 465.600 644.803, 470.325 641.923, 475 639.017 C 479.675 636.111, 484.932 632.918, 486.683 631.921 C 488.433 630.925, 492.258 628.579, 495.183 626.708 C 498.107 624.837, 503.425 621.496, 507 619.283 C 543.067 596.959, 560.337 586.220, 564.735 583.380 C 567.614 581.521, 570.207 580, 570.497 580 C 570.787 580, 574.056 578.036, 577.762 575.635 C 581.468 573.234, 588.775 568.669, 594 565.490 C 599.225 562.311, 605.075 558.703, 607 557.474 C 608.925 556.244, 614.100 553.105, 618.500 550.499 C 628.204 544.752, 630.748 542.518, 632.587 538.128 C 635.618 530.894, 633.517 523.908, 626.844 519.029 C 624.455 517.283, 614.175 510.486, 604 503.925 C 585.467 491.974, 582.941 490.337, 556 472.807 C 548.025 467.618, 526.274 453.501, 507.664 441.436 C 489.055 429.371, 467.886 415.639, 460.621 410.920 C 448.422 402.995, 442.381 399.880, 439.601 400.079 C 438.995 400.122, 437.150 400.628, 435.500 401.202 M 164.423 478.340 C 164.140 479.077, 164.076 514.965, 164.280 558.090 C 164.642 634.535, 164.707 636.751, 166.858 646.500 C 173.752 677.752, 188.971 706.754, 209.219 727.223 C 220.497 738.625, 222.508 740.318, 233.698 747.837 C 255.523 762.500, 278.008 770.411, 305 772.923 C 320.053 774.324, 712.430 774.388, 729.273 772.993 C 746.552 771.561, 762.412 767.243, 778 759.725 C 785.740 755.992, 798.774 748.451, 800 746.997 C 800.275 746.671, 802.075 745.308, 804 743.970 C 824.742 729.547, 845.721 702.148, 856.427 675.500 C 861.903 661.868, 865.902 646.751, 865.965 639.438 C 865.994 636.074, 865.491 635, 863.034 633.183 C 861.403 631.977, 858.169 628.180, 855.848 624.745 C 844.651 608.175, 821.738 592, 809.462 592 L 806 592 806 603.337 C 806 629.754, 799.767 651.521, 786.460 671.580 C 771.673 693.868, 750.408 708.171, 725.500 712.581 C 713.522 714.702, 319.466 714.695, 307.413 712.574 C 274.471 706.776, 246.895 682.597, 233.170 647.474 C 226.988 631.656, 226.045 621.850, 226.004 573 C 225.985 549.625, 225.639 530.025, 225.235 529.444 C 224.831 528.864, 221.028 527.136, 216.784 525.605 C 196.994 518.467, 180.958 504.094, 171.973 485.444 C 168.113 477.431, 165.658 475.121, 164.423 478.340" stroke="none" fill="#f1f3f9" fill-rule="evenodd"/></svg>